<svg width="412" height="38" viewBox="0 0 412 38" fill="none" xmlns="http://www.w3.org/2000/svg">
<path d="M21.64 37L19.912 29.848H10.216L8.53601 37H0.376007L10.408 3.736H19.96L29.992 37H21.64ZM11.56 24.136H18.568L15.064 9.448L11.56 24.136Z" fill="#141414"/>
<path d="M39.0565 37.816C36.8485 37.816 35.1205 37.192 33.8725 35.944C32.6565 34.664 32.0485 32.856 32.0485 30.52V1.38399L39.6325 0.567993V30.232C39.6325 31.288 40.0645 31.816 40.9285 31.816C41.3765 31.816 41.7925 31.736 42.1765 31.576L43.6645 36.952C42.2885 37.528 40.7525 37.816 39.0565 37.816Z" fill="#141414"/>
<path d="M68.5281 23.752C68.5281 24.808 68.4801 25.72 68.3841 26.488H52.5921C52.8481 28.632 53.4561 30.136 54.4161 31C55.3761 31.864 56.7041 32.296 58.4001 32.296C59.4241 32.296 60.4161 32.12 61.3761 31.768C62.3361 31.384 63.3761 30.808 64.4961 30.04L67.6161 34.264C64.6401 36.632 61.3281 37.816 57.6801 37.816C53.5521 37.816 50.3841 36.6 48.1761 34.168C45.9681 31.736 44.8641 28.472 44.8641 24.376C44.8641 21.784 45.3281 19.464 46.2561 17.416C47.1841 15.336 48.5441 13.704 50.3361 12.52C52.1281 11.304 54.2721 10.696 56.7681 10.696C60.4481 10.696 63.3281 11.848 65.4081 14.152C67.4881 16.456 68.5281 19.656 68.5281 23.752ZM61.0881 21.592C61.0241 17.688 59.6481 15.736 56.9601 15.736C55.6481 15.736 54.6241 16.216 53.8881 17.176C53.1841 18.136 52.7521 19.72 52.5921 21.928H61.0881V21.592Z" fill="#141414"/>
<path d="M86.0511 23.368L94.2591 37H85.6671L81.2511 27.448L76.9311 37H68.6751L76.8831 23.608L69.4911 11.512H77.9871L81.5391 19.672L84.9471 11.512H93.0111L86.0511 23.368Z" fill="#141414"/>
<path d="M116.295 29.608C116.295 30.568 116.423 31.272 116.679 31.72C116.967 32.168 117.415 32.504 118.023 32.728L116.439 37.672C114.871 37.544 113.591 37.208 112.599 36.664C111.607 36.088 110.839 35.192 110.295 33.976C108.631 36.536 106.071 37.816 102.615 37.816C100.087 37.816 98.0705 37.08 96.5665 35.608C95.0625 34.136 94.3105 32.216 94.3105 29.848C94.3105 27.064 95.3345 24.936 97.3825 23.464C99.4305 21.992 102.391 21.256 106.263 21.256H108.855V20.152C108.855 18.648 108.535 17.624 107.895 17.08C107.255 16.504 106.135 16.216 104.535 16.216C103.703 16.216 102.695 16.344 101.511 16.6C100.327 16.824 99.1105 17.144 97.8625 17.56L96.1345 12.568C97.7345 11.96 99.3665 11.496 101.031 11.176C102.727 10.856 104.295 10.696 105.735 10.696C109.383 10.696 112.055 11.448 113.751 12.952C115.447 14.456 116.295 16.712 116.295 19.72V29.608ZM104.823 32.392C106.551 32.392 107.895 31.576 108.855 29.944V25.432H106.983C105.255 25.432 103.959 25.736 103.095 26.344C102.263 26.952 101.847 27.896 101.847 29.176C101.847 30.2 102.103 31 102.615 31.576C103.159 32.12 103.895 32.392 104.823 32.392Z" fill="#141414"/>
<path d="M137.263 10.696C139.471 10.696 141.199 11.368 142.447 12.712C143.695 14.056 144.319 15.944 144.319 18.376V37H136.735V19.672C136.735 18.392 136.527 17.512 136.111 17.032C135.727 16.52 135.135 16.264 134.335 16.264C132.799 16.264 131.327 17.368 129.919 19.576V37H122.335V11.512H128.959L129.487 14.536C130.575 13.256 131.743 12.296 132.991 11.656C134.271 11.016 135.695 10.696 137.263 10.696Z" fill="#141414"/>
<path d="M172.887 1.38399V37H166.167L165.783 34.024C163.991 36.552 161.575 37.816 158.535 37.816C155.366 37.816 152.951 36.6 151.287 34.168C149.655 31.736 148.839 28.408 148.839 24.184C148.839 21.592 149.271 19.272 150.135 17.224C150.999 15.176 152.215 13.576 153.783 12.424C155.383 11.272 157.207 10.696 159.255 10.696C161.687 10.696 163.703 11.496 165.303 13.096V0.567993L172.887 1.38399ZM160.887 32.248C162.647 32.248 164.119 31.288 165.303 29.368V18.376C164.695 17.64 164.071 17.096 163.431 16.744C162.823 16.392 162.119 16.216 161.319 16.216C159.911 16.216 158.791 16.872 157.959 18.184C157.127 19.496 156.711 21.512 156.711 24.232C156.711 27.208 157.063 29.288 157.767 30.472C158.503 31.656 159.543 32.248 160.887 32.248Z" fill="#141414"/>
<path d="M201.044 23.752C201.044 24.808 200.996 25.72 200.9 26.488H185.108C185.364 28.632 185.972 30.136 186.932 31C187.892 31.864 189.22 32.296 190.916 32.296C191.94 32.296 192.932 32.12 193.892 31.768C194.852 31.384 195.892 30.808 197.012 30.04L200.132 34.264C197.156 36.632 193.844 37.816 190.196 37.816C186.068 37.816 182.9 36.6 180.692 34.168C178.484 31.736 177.38 28.472 177.38 24.376C177.38 21.784 177.844 19.464 178.772 17.416C179.7 15.336 181.06 13.704 182.852 12.52C184.644 11.304 186.788 10.696 189.284 10.696C192.964 10.696 195.844 11.848 197.924 14.152C200.004 16.456 201.044 19.656 201.044 23.752ZM193.604 21.592C193.54 17.688 192.164 15.736 189.476 15.736C188.164 15.736 187.14 16.216 186.404 17.176C185.7 18.136 185.268 19.72 185.108 21.928H193.604V21.592Z" fill="#141414"/>
<path d="M219.128 10.792C220.056 10.792 220.904 10.904 221.672 11.128L220.472 18.472C219.512 18.248 218.744 18.136 218.168 18.136C216.664 18.136 215.512 18.664 214.712 19.72C213.944 20.744 213.336 22.296 212.888 24.376V37H205.304V11.512H211.928L212.552 16.456C213.128 14.696 213.992 13.32 215.144 12.328C216.328 11.304 217.656 10.792 219.128 10.792Z" fill="#141414"/>
<path d="M253.624 37L251.896 29.848H242.2L240.52 37H232.36L242.392 3.736H251.944L261.976 37H253.624ZM243.544 24.136H250.552L247.048 9.448L243.544 24.136Z" fill="#141414"/>
<path d="M279.201 10.696C281.409 10.696 283.137 11.368 284.385 12.712C285.633 14.056 286.257 15.944 286.257 18.376V37H278.673V19.672C278.673 18.392 278.465 17.512 278.049 17.032C277.665 16.52 277.073 16.264 276.273 16.264C274.737 16.264 273.265 17.368 271.857 19.576V37H264.273V11.512H270.897L271.425 14.536C272.513 13.256 273.681 12.296 274.929 11.656C276.209 11.016 277.633 10.696 279.201 10.696Z" fill="#141414"/>
<path d="M307.96 35.8C307.032 36.44 305.944 36.936 304.696 37.288C303.48 37.64 302.264 37.816 301.048 37.816C295.48 37.784 292.696 34.712 292.696 28.6V16.792H289.096V11.512H292.696V5.99199L300.28 5.12799V11.512H306.136L305.32 16.792H300.28V28.504C300.28 29.688 300.472 30.536 300.856 31.048C301.24 31.56 301.848 31.816 302.68 31.816C303.544 31.816 304.456 31.544 305.416 31L307.96 35.8Z" fill="#141414"/>
<path d="M331.996 37H325.42L325.084 33.784C323.228 36.472 320.652 37.816 317.356 37.816C315.02 37.816 313.244 37.112 312.028 35.704C310.844 34.296 310.252 32.328 310.252 29.8V11.512H317.836V28.84C317.836 30.088 318.028 30.968 318.412 31.48C318.828 31.96 319.452 32.2 320.284 32.2C321.884 32.2 323.26 31.208 324.412 29.224V11.512H331.996V37Z" fill="#141414"/>
<path d="M352.888 10.696C355.096 10.696 356.824 11.368 358.072 12.712C359.32 14.056 359.944 15.944 359.944 18.376V37H352.36V19.672C352.36 18.392 352.152 17.512 351.736 17.032C351.352 16.52 350.76 16.264 349.96 16.264C348.424 16.264 346.952 17.368 345.544 19.576V37H337.96V11.512H344.584L345.112 14.536C346.2 13.256 347.368 12.296 348.616 11.656C349.896 11.016 351.32 10.696 352.888 10.696Z" fill="#141414"/>
<path d="M387.888 23.752C387.888 24.808 387.84 25.72 387.743 26.488H371.952C372.208 28.632 372.816 30.136 373.776 31C374.736 31.864 376.064 32.296 377.76 32.296C378.784 32.296 379.776 32.12 380.736 31.768C381.696 31.384 382.735 30.808 383.855 30.04L386.975 34.264C383.999 36.632 380.688 37.816 377.04 37.816C372.912 37.816 369.744 36.6 367.536 34.168C365.328 31.736 364.224 28.472 364.224 24.376C364.224 21.784 364.688 19.464 365.616 17.416C366.544 15.336 367.903 13.704 369.695 12.52C371.487 11.304 373.632 10.696 376.128 10.696C379.808 10.696 382.688 11.848 384.768 14.152C386.848 16.456 387.888 19.656 387.888 23.752ZM380.448 21.592C380.384 17.688 379.008 15.736 376.32 15.736C375.008 15.736 373.983 16.216 373.247 17.176C372.543 18.136 372.112 19.72 371.952 21.928H380.448V21.592Z" fill="#141414"/>
<path d="M401.124 10.696C402.948 10.696 404.66 10.968 406.26 11.512C407.86 12.056 409.268 12.824 410.484 13.816L407.7 18.088C405.62 16.776 403.524 16.12 401.412 16.12C400.42 16.12 399.652 16.296 399.108 16.648C398.596 16.968 398.34 17.432 398.34 18.04C398.34 18.52 398.452 18.92 398.676 19.24C398.932 19.528 399.428 19.832 400.164 20.152C400.9 20.472 402.036 20.856 403.572 21.304C406.228 22.072 408.196 23.08 409.476 24.328C410.788 25.544 411.444 27.24 411.444 29.416C411.444 31.144 410.948 32.648 409.956 33.928C408.964 35.176 407.604 36.136 405.876 36.808C404.148 37.48 402.228 37.816 400.116 37.816C397.972 37.816 395.972 37.48 394.116 36.808C392.292 36.136 390.74 35.208 389.46 34.024L393.156 29.896C395.3 31.56 397.556 32.392 399.924 32.392C401.076 32.392 401.972 32.184 402.612 31.768C403.284 31.352 403.62 30.76 403.62 29.992C403.62 29.384 403.492 28.904 403.236 28.552C402.98 28.2 402.484 27.88 401.748 27.592C401.012 27.272 399.844 26.888 398.244 26.44C395.716 25.704 393.828 24.68 392.58 23.368C391.332 22.056 390.708 20.424 390.708 18.472C390.708 17 391.124 15.688 391.956 14.536C392.82 13.352 394.036 12.424 395.604 11.752C397.204 11.048 399.044 10.696 401.124 10.696Z" fill="#141414"/>
</svg>
